<svg version="1.2" xmlns="http://www.w3.org/2000/svg" viewBox="0 0 3710 3710" width="3710" height="3710"><defs><linearGradient id="P" gradientUnits="userSpaceOnUse"/><linearGradient id="g1" x2="1" href="#P" gradientTransform="matrix(-2480.436,-3080.545,3114.625,-2507.876,3588.992,4065.344)"><stop stop-color="#dae3fe"/><stop offset="1" stop-color="#e9effd"/></linearGradient><linearGradient id="g2" x2="1" href="#P" gradientTransform="matrix(-2064.43,2740.865,-2740.865,-2064.43,2459.443,764.414)"><stop stop-color="#4f52ff"/><stop offset="1" stop-color="#4042e2"/></linearGradient><linearGradient id="g3" x2="1" href="#P" gradientTransform="matrix(-2064.427,2740.861,-2740.861,-2064.427,2459.443,764.414)"><stop stop-color="#4f52ff"/><stop offset="1" stop-color="#4042e2"/></linearGradient><linearGradient id="g4" x2="1" href="#P" gradientTransform="matrix(-114.917,905.821,-905.821,-114.917,1847.894,349.242)"><stop stop-color="#ff928e"/><stop offset="1" stop-color="#fe7062"/></linearGradient><linearGradient id="g5" x2="1" href="#P" gradientTransform="matrix(923.794,-558.837,151.334,250.165,1416.742,1759.191)"><stop stop-color="#09005d"/><stop offset="1" stop-color="#1a0f91"/></linearGradient><linearGradient id="g6" x2="1" href="#P" gradientTransform="matrix(653.911,-542.392,151.882,183.109,1728.159,1758.962)"><stop stop-color="#09005d"/><stop offset="1" stop-color="#1a0f91"/></linearGradient><linearGradient id="g7" x2="1" href="#P" gradientTransform="matrix(-535.069,571.023,-873.509,-818.51,981.388,3122.916)"><stop stop-color="#09005d"/><stop offset="1" stop-color="#1a0f91"/></linearGradient><linearGradient id="g8" x2="1" href="#P" gradientTransform="matrix(47.041,.447,-0.453,47.702,809.083,3164.062)"><stop stop-color="#febbba"/><stop offset="1" stop-color="#ff928e"/></linearGradient><linearGradient id="g9" x2="1" href="#P" gradientTransform="matrix(-456.47,606.54,-557.427,-419.508,1029.307,2471.813)"><stop stop-color="#09005d"/><stop offset="1" stop-color="#1a0f91"/></linearGradient><linearGradient id="g10" x2="1" href="#P" gradientTransform="matrix(-535.092,571.046,-625.96,-586.549,863.62,3012.543)"><stop stop-color="#09005d"/><stop offset="1" stop-color="#1a0f91"/></linearGradient><linearGradient id="g11" x2="1" href="#P" gradientTransform="matrix(40.615,.386,-0.593,62.427,639.563,3160.032)"><stop stop-color="#febbba"/><stop offset="1" stop-color="#ff928e"/></linearGradient><linearGradient id="g12" x2="1" href="#P" gradientTransform="matrix(-456.465,606.533,-416.364,-313.347,949.549,2411.79)"><stop stop-color="#09005d"/><stop offset="1" stop-color="#1a0f91"/></linearGradient><linearGradient id="g13" x2="1" href="#P" gradientTransform="matrix(479.95,354.893,-544.352,736.17,-13385.895,-8273.263)"><stop stop-color="#ff928e"/><stop offset="1" stop-color="#fe7062"/></linearGradient><linearGradient id="g14" x2="1" href="#P" gradientTransform="matrix(240.342,2.283,-2.682,282.285,1014.373,1938.613)"><stop stop-color="#febbba"/><stop offset="1" stop-color="#ff928e"/></linearGradient><linearGradient id="g15" x2="1" href="#P" gradientTransform="matrix(-164.757,365.397,-154.784,-69.792,1201.56,1900.106)"><stop stop-color="#febbba"/><stop offset="1" stop-color="#ff928e"/></linearGradient><linearGradient id="g16" x2="1" href="#P" gradientTransform="matrix(68.276,-102.824,61.477,40.821,1255.106,1778.404)"><stop stop-color="#febbba"/><stop offset="1" stop-color="#ff928e"/></linearGradient><linearGradient id="g17" x2="1" href="#P" gradientTransform="matrix(479.949,354.893,-603.557,816.237,-13419.82,-8227.388)"><stop stop-color="#ff928e"/><stop offset="1" stop-color="#fe7062"/></linearGradient><linearGradient id="g18" x2="1" href="#P" gradientTransform="matrix(304.145,2.889,-1.475,155.217,485.224,2274.021)"><stop stop-color="#febbba"/><stop offset="1" stop-color="#ff928e"/></linearGradient><linearGradient id="g19" x2="1" href="#P" gradientTransform="matrix(114.917,-223.075,148.046,76.266,708.828,2106.073)"><stop stop-color="#febbba"/><stop offset="1" stop-color="#ff928e"/></linearGradient><linearGradient id="g20" x2="1" href="#P" gradientTransform="matrix(-131.449,-81.896,68.035,-109.201,871.446,1876.011)"><stop stop-color="#febbba"/><stop offset="1" stop-color="#ff928e"/></linearGradient><linearGradient id="g21" x2="1" href="#P" gradientTransform="matrix(169.523,136.527,-196.682,244.217,670.82,1708.445)"><stop stop-color="#09005d"/><stop offset="1" stop-color="#1a0f91"/></linearGradient><linearGradient id="g22" x2="1" href="#P" gradientTransform="matrix(-118.267,-73.683,36.357,-58.355,836.433,1905.753)"><stop stop-color="#febbba"/><stop offset="1" stop-color="#ff928e"/></linearGradient><linearGradient id="g23" x2="1" href="#P" gradientTransform="matrix(167.826,699.279,-947.187,227.324,870.924,2080.767)"><stop stop-color="#09005d"/><stop offset="1" stop-color="#1a0f91"/></linearGradient><linearGradient id="g24" x2="1" href="#P" gradientTransform="matrix(95.087,0,0,85.432,755.924,2265.763)"><stop stop-color="#febbba"/><stop offset="1" stop-color="#ff928e"/></linearGradient><linearGradient id="g25" x2="1" href="#P" gradientTransform="matrix(255.125,408.879,-278.639,173.86,2650.996,1716.03)"><stop stop-color="#febbba"/><stop offset="1" stop-color="#ff928e"/></linearGradient><linearGradient id="g26" x2="1" href="#P" gradientTransform="matrix(-257.696,171.814,-220.843,-331.232,3359.228,1678.397)"><stop stop-color="#09005d"/><stop offset="1" stop-color="#1a0f91"/></linearGradient><linearGradient id="g27" x2="1" href="#P" gradientTransform="matrix(-185.896,287.294,-242.411,-156.854,3286.98,1707.236)"><stop stop-color="#ff928e"/><stop offset="1" stop-color="#fe7062"/></linearGradient><linearGradient id="g28" x2="1" href="#P" gradientTransform="matrix(47.832,-106.227,100.555,45.278,2965.213,1998.87)"><stop stop-color="#febbba"/><stop offset="1" stop-color="#ff928e"/></linearGradient><linearGradient id="g29" x2="1" href="#P" gradientTransform="matrix(97.071,210.161,-231.808,107.07,2962.751,1740.717)"><stop stop-color="#febbba"/><stop offset="1" stop-color="#ff928e"/></linearGradient><linearGradient id="g30" x2="1" href="#P" gradientTransform="matrix(-257.702,171.818,-252.494,-378.705,3289.974,1574.528)"><stop stop-color="#09005d"/><stop offset="1" stop-color="#1a0f91"/></linearGradient><linearGradient id="g31" x2="1" href="#P" gradientTransform="matrix(97.069,210.157,-306.041,141.357,3008.421,1719.62)"><stop stop-color="#febbba"/><stop offset="1" stop-color="#ff928e"/></linearGradient><linearGradient id="g32" x2="1" href="#P" gradientTransform="matrix(-356.366,-643.236,148.786,-82.431,3233.62,3321.739)"><stop stop-color="#febbba"/><stop offset="1" stop-color="#ff928e"/></linearGradient><linearGradient id="g33" x2="1" href="#P" gradientTransform="matrix(-105.944,-1.006,1.427,-150.168,3156.758,3094.785)"><stop stop-color="#09005d"/><stop offset="1" stop-color="#1a0f91"/></linearGradient><linearGradient id="g34" x2="1" href="#P" gradientTransform="matrix(540.404,178.48,-507.534,1536.722,2827.377,2844.534)"><stop stop-color="#febbba"/><stop offset="1" stop-color="#ff928e"/></linearGradient><linearGradient id="g35" x2="1" href="#P" gradientTransform="matrix(-126.295,-1.2,1.214,-127.766,3058.353,3112.986)"><stop stop-color="#09005d"/><stop offset="1" stop-color="#1a0f91"/></linearGradient><linearGradient id="g36" x2="1" href="#P" gradientTransform="matrix(-304.194,233.216,-223.132,-291.041,3434.755,2168.003)"><stop stop-color="#09005d"/><stop offset="1" stop-color="#1a0f91"/></linearGradient><linearGradient id="g37" x2="1" href="#P" gradientTransform="matrix(-510.801,-757.356,619.486,-417.815,3199.396,2329.361)"><stop stop-color="#febbba"/><stop offset="1" stop-color="#ff928e"/></linearGradient><linearGradient id="g38" x2="1" href="#P" gradientTransform="matrix(33.297,129.004,-310.117,80.043,2114.126,2974.565)"><stop stop-color="#09005d"/><stop offset="1" stop-color="#1a0f91"/></linearGradient><linearGradient id="g39" x2="1" href="#P" gradientTransform="matrix(-58.737,-13,15.258,-68.938,2216.035,3045.523)"><stop stop-color="#febbba"/><stop offset="1" stop-color="#ff928e"/></linearGradient><linearGradient id="g40" x2="1" href="#P" gradientTransform="matrix(-172.178,-405.086,524.864,-223.089,2331.721,2908.095)"><stop stop-color="#09005d"/><stop offset="1" stop-color="#1a0f91"/></linearGradient><linearGradient id="g41" x2="1" href="#P" gradientTransform="matrix(145.252,312.552,-843.872,392.172,2122.391,3099.373)"><stop stop-color="#09005d"/><stop offset="1" stop-color="#1a0f91"/></linearGradient><linearGradient id="g42" x2="1" href="#P" gradientTransform="matrix(-157.946,-34.957,17.168,-77.569,2211.876,3179.908)"><stop stop-color="#4f52ff"/><stop offset="1" stop-color="#4042e2"/></linearGradient><linearGradient id="g43" x2="1" href="#P" gradientTransform="matrix(-55.128,-12.201,13.748,-62.117,2246.511,3109.13)"><stop stop-color="#febbba"/><stop offset="1" stop-color="#ff928e"/></linearGradient><linearGradient id="g44" x2="1" href="#P" gradientTransform="matrix(89.769,-470.808,318.682,60.763,2383.107,3102.345)"><stop stop-color="#09005d"/><stop offset="1" stop-color="#1a0f91"/></linearGradient><linearGradient id="g45" x2="1" href="#P" gradientTransform="matrix(-542.452,420.782,-318.606,-410.733,2558.572,2192.788)"><stop stop-color="#ff928e"/><stop offset="1" stop-color="#fe7062"/></linearGradient><linearGradient id="g46" x2="1" href="#P" gradientTransform="matrix(-192.302,-42.561,23.132,-104.518,2176.535,2484.976)"><stop stop-color="#febbba"/><stop offset="1" stop-color="#ff928e"/></linearGradient><linearGradient id="g47" x2="1" href="#P" gradientTransform="matrix(517.103,-319.387,422.027,683.282,1934.932,2777.015)"><stop stop-color="#ff928e"/><stop offset="1" stop-color="#fe7062"/></linearGradient><linearGradient id="g48" x2="1" href="#P" gradientTransform="matrix(-127.588,-28.238,26.406,-119.311,2465.091,2192.963)"><stop stop-color="#febbba"/><stop offset="1" stop-color="#ff928e"/></linearGradient><linearGradient id="g49" x2="1" href="#P" gradientTransform="matrix(517.104,-319.387,781.962,1266.035,1966.187,2827.614)"><stop stop-color="#ff928e"/><stop offset="1" stop-color="#fe7062"/></linearGradient><linearGradient id="g50" x2="1" href="#P" gradientTransform="matrix(506.705,709.542,-980.19,699.983,2566.414,2511.885)"><stop stop-color="#febbba"/><stop offset="1" stop-color="#ff928e"/></linearGradient><linearGradient id="g51" x2="1" href="#P" gradientTransform="matrix(-64.099,300.689,-244.173,-52.051,2394.475,2029.434)"><stop stop-color="#febbba"/><stop offset="1" stop-color="#ff928e"/></linearGradient><linearGradient id="g52" x2="1" href="#P" gradientTransform="matrix(-127.717,-147.543,95.611,-82.764,2483.118,2109.708)"><stop stop-color="#09005d"/><stop offset="1" stop-color="#1a0f91"/></linearGradient><linearGradient id="g53" x2="1" href="#P" gradientTransform="matrix(15.886,-187.055,191.218,16.239,2419.693,2316.046)"><stop stop-color="#febbba"/><stop offset="1" stop-color="#ff928e"/></linearGradient><linearGradient id="g54" x2="1" href="#P" gradientTransform="matrix(-252.398,82.781,-32.045,-97.706,2406.584,2481.388)"><stop stop-color="#09005d"/><stop offset="1" stop-color="#1a0f91"/></linearGradient><linearGradient id="g55" x2="1" href="#P" gradientTransform="matrix(-181.767,192.116,-291.36,-275.665,2059.865,2315.898)"><stop stop-color="#09005d"/><stop offset="1" stop-color="#1a0f91"/></linearGradient></defs><style>.a{fill:url(#g1)}.b{fill:#bdd0fb}.c{fill:url(#g2)}.d{fill:#fff}.e{fill:url(#g3)}.f{fill:url(#g4)}.g{fill:url(#g5)}.h{fill:url(#g6)}.i{fill:#91b3fa}.j{fill:url(#g7)}.k{fill:url(#g8)}.l{fill:url(#g9)}.m{fill:url(#g10)}.n{fill:url(#g11)}.o{fill:url(#g12)}.p{fill:url(#g13)}.q{fill:url(#g14)}.r{fill:url(#g15)}.s{fill:url(#g16)}.t{fill:url(#g17)}.u{fill:url(#g18)}.v{fill:url(#g19)}.w{fill:url(#g20)}.x{fill:url(#g21)}.y{fill:url(#g22)}.z{fill:url(#g23)}.A{fill:url(#g24)}.B{fill:url(#g25)}.C{fill:url(#g26)}.D{fill:url(#g27)}.E{fill:url(#g28)}.F{fill:url(#g29)}.G{fill:url(#g30)}.H{fill:url(#g31)}.I{fill:url(#g32)}.J{fill:url(#g33)}.K{fill:url(#g34)}.L{fill:url(#g35)}.M{fill:url(#g36)}.N{fill:url(#g37)}.O{fill:#7d97f4}.P{fill:url(#g38)}.Q{fill:url(#g39)}.R{fill:url(#g40)}.S{fill:url(#g41)}.T{fill:url(#g42)}.U{fill:url(#g43)}.V{fill:url(#g44)}.W{fill:url(#g45)}.X{fill:url(#g46)}.Y{fill:url(#g47)}.Z{fill:url(#g48)}.a0{fill:url(#g49)}.a1{fill:url(#g50)}.a2{fill:url(#g51)}.a3{fill:url(#g52)}.a4{fill:url(#g53)}.a5{fill:url(#g54)}.a6{fill:url(#g55)}</style><path class="a" d="m2906.6 2850.5c-57 60-110.9 98.6-153.5 129.2-500.6 359.2-1093.1 254.5-1219 229-185.9-37.8-545.3-110.8-805.1-416.4-393.1-462.2-331.9-1190.5-27-1671.3 55.8-87.9 350.4-576 949.2-654.3 362.4-47.4 784.8 48.2 1090.7 304.5 642.2 537.9 596.5 1624.8 164.7 2079.3z"/><path class="b" d="m2420.3 2584.5c-420.1 420.1-1099.2 420.1-1519.3 0-420-420.1-420-1099.2 0-1519.2 420.1-420.1 1099.2-420.1 1519.3 0 420.1 420 420.1 1099.1 0 1519.2z"/><path class="c" d="m1660.7 2741.8c-507 0-916.9-409.9-916.9-916.9 0-507 409.9-916.9 916.9-916.9 507 0 916.9 409.9 916.9 916.9 0 507-409.9 916.9-916.9 916.9z"/><path fill-rule="evenodd" class="d" d="m1660.7 2787.7c-530.9 0-962.8-431.9-962.8-962.8 0-530.9 431.9-962.8 962.8-962.8 530.9 0 962.8 431.9 962.8 962.8 0 530.9-431.9 962.8-962.8 962.8zm0-1879.7c-505.6 0-916.9 411.3-916.9 916.9 0 505.6 411.3 916.9 916.9 916.9 505.5 0 916.8-411.3 916.8-916.9 0-505.6-411.3-916.9-916.8-916.9z"/><path class="e" d="m1660.7 2383.9c-309.1 0-559-249.9-559-559 0-309.1 249.9-559 559-559 309.1 0 558.9 249.9 558.9 559 0 309.1-249.8 559-558.9 559z"/><path fill-rule="evenodd" class="d" d="m1660.7 2429.8c-333.5 0-604.9-271.4-604.9-604.9 0-333.5 271.4-604.9 604.9-604.9 333.5 0 604.9 271.4 604.9 604.9 0 333.5-271.4 604.9-604.9 604.9zm0-1117.9c-282.9 0-513.1 230.1-513.1 513 0 282.9 230.2 513 513.1 513 282.9 0 513-230.1 513-513 0-282.9-230.1-513-513-513z"/><path class="f" d="m1660.7 2041.5c-119.8 0-216.6-96.8-216.6-216.6 0-119.8 96.8-216.6 216.6-216.6 119.7 0 216.5 96.8 216.5 216.6 0 119.8-96.8 216.6-216.5 216.6z"/><path fill-rule="evenodd" class="d" d="m1660.7 2087.4c-144.7 0-262.5-117.8-262.5-262.5 0-144.7 117.8-262.5 262.5-262.5 144.7 0 262.5 117.8 262.5 262.5 0 144.7-117.8 262.5-262.5 262.5zm0-433.1c-94.1 0-170.7 76.5-170.7 170.6 0 94.1 76.6 170.6 170.7 170.6 94.1 0 170.6-76.5 170.6-170.6 0-94.1-76.5-170.6-170.6-170.6z"/><path class="g" d="m2685.7 802.6l22.9 22.8-863.8 863.8-22.8-22.9z"/><path class="h" d="m1838.2 1611.3c13-13.1 74.7 48.6 61.6 61.7l-228.8 179.9c-8.4 6.6-19.4-4.3-12.7-12.8z"/><path class="i" d="m2708.1 825.9l116.2 11.6-159.6 159.5c-52.2 52.2-125.2 78.3-198.7 71z"/><path class="i" d="m2685.3 803.1l-11.6-116.2-159.5 159.5c-52.3 52.3-78.4 125.2-71 198.8z"/><g style="opacity:.3"><path class="i" d="m1090.6 642.3c-3.3 3.2-8.5 3.2-11.8-0.1-6.3-6.3-12.9-12.4-19.8-18.2-3.5-2.9-3.9-8-1.1-11.6q0 0 0.1-0.1c3-3.5 8.2-3.9 11.7-1 7.2 6.1 14.3 12.6 20.9 19.2 3 3 3.2 7.8 0.6 11.1q-0.3 0.3-0.6 0.7zm-66.9-44.1c-7.6-4.8-15.4-9.3-23.3-13.4-4.1-2.1-5.7-7.1-3.6-11.2 2.1-4.1 7.1-5.7 11.2-3.6 8.3 4.4 16.6 9.1 24.6 14.1 3.9 2.5 5 7.6 2.6 11.5q-0.3 0.4-0.6 0.8c-2.6 3.2-7.3 4.1-10.9 1.8zm-63.5-30.8c-8.4-3-17.1-5.6-25.7-7.8-4.5-1.2-7.1-5.7-6-10.2 1.2-4.4 5.7-7.1 10.2-5.9 9.1 2.3 18.2 5.1 27.1 8.2 4.3 1.6 6.6 6.3 5 10.6q-0.5 1.4-1.3 2.5c-2.2 2.7-5.9 3.8-9.3 2.6zm-68.7-15.8c-8.9-1-17.9-1.7-26.9-1.9-4.6-0.2-8.2-4-8.1-8.6 0.2-4.6 4-8.2 8.6-8 9.4 0.2 18.9 0.9 28.3 2 4.5 0.5 7.8 4.6 7.3 9.2-0.2 1.6-0.9 3.1-1.8 4.3-1.7 2.1-4.5 3.3-7.4 3zm-70.6-0.1c-8.9 1-17.8 2.3-26.6 4.1-4.5 0.9-8.9-2.1-9.8-6.6-0.9-4.5 2.1-8.9 6.6-9.7 9.2-1.9 18.7-3.3 28-4.3 4.5-0.6 8.7 2.7 9.2 7.3 0.2 2.3-0.5 4.5-1.8 6.1-1.4 1.7-3.3 2.8-5.6 3.1zm-68.8 15.5c-8.5 2.9-16.9 6.2-25.1 9.9-4.2 1.8-9.1-0.1-10.9-4.3-1.9-4.2 0-9.1 4.2-10.9 8.6-3.9 17.5-7.4 26.3-10.4 4.4-1.5 9.1 0.8 10.6 5.1 1 2.8 0.4 5.8-1.4 8-0.9 1.1-2.2 2.1-3.7 2.6zm-212 224.3c-4.5-1.1-7.2-5.7-6-10.1 2.4-9.1 5.2-18.3 8.3-27.1 1.6-4.4 6.3-6.6 10.6-5.1 4.4 1.5 6.6 6.3 5.1 10.6-3 8.5-5.7 17.1-7.9 25.8-0.3 1.1-0.9 2.2-1.6 3.1-2 2.5-5.3 3.7-8.5 2.8zm148.3-194c-7.5 4.8-15 9.9-22.2 15.2-3.6 2.8-8.8 2-11.6-1.6-2.8-3.7-2-8.9 1.7-11.7 7.5-5.6 15.4-11 23.3-16 3.9-2.4 9.1-1.2 11.5 2.7 1.9 3.1 1.6 6.9-0.6 9.6q-0.9 1.1-2.1 1.8zm-124 125.8c-4.1-2.2-5.7-7.2-3.6-11.3 4.4-8.3 9.1-16.6 14.2-24.5 2.4-3.9 7.6-5 11.5-2.6 3.8 2.5 5 7.6 2.5 11.5-4.8 7.6-9.3 15.4-13.4 23.3q-0.4 0.8-1 1.4c-2.4 3-6.7 4-10.2 2.2zm68.8-82c-6.3 6.4-12.5 13-18.3 19.8-2.9 3.5-8.2 4-11.7 1-3.4-2.9-3.9-8.1-1.1-11.6q0.1 0 0.1-0.1c6.1-7.2 12.6-14.2 19.3-20.8 3.2-3.3 8.5-3.3 11.7 0 3 3 3.2 7.8 0.6 11.1q-0.3 0.3-0.6 0.6z"/><path class="i" d="m539.1 846.1c1-1.3 1.7-2.9 1.8-4.6 0.3-4.3 0.7-8.6 1.2-12.9 0.5-4.6-2.7-8.7-7.3-9.2-4.6-0.6-8.7 2.7-9.2 7.3-0.5 4.5-0.9 9-1.3 13.5-0.3 4.6 3.1 8.6 7.7 8.9 2.8 0.3 5.4-1 7.1-3z"/></g><g style="opacity:.3"><path class="i" d="m620.6 1086c2.5-3.1 2.5-7.7-0.3-10.7-2.8-3.2-5.7-6.5-8.4-9.9-2.9-3.5-8.2-4-11.7-1.1-3.6 2.9-4.1 8.2-1.1 11.7 2.8 3.5 5.8 7 8.9 10.4 3 3.4 8.3 3.7 11.7 0.6q0.5-0.5 0.9-1z"/><path class="i" d="m1102.5 1086.8c-3 3.4-8.3 3.7-11.7 0.6-3.4-3-3.7-8.3-0.7-11.7 5.9-6.5 11.5-13.4 16.9-20.5 2.7-3.6 8-4.4 11.6-1.6 3.7 2.8 4.4 8 1.6 11.6q-3.4 4.7-7.1 9.1c-3.4 4.3-7 8.4-10.6 12.5zm31.2-56.3c-4-2.2-5.4-7.3-3.1-11.3 4.3-7.7 8.3-15.6 12-23.6 1.9-4.2 6.8-6 11-4.1 4.2 1.9 6 6.8 4.1 11-3.8 8.4-8.1 16.8-12.6 24.8q-0.4 0.7-0.8 1.2c-2.5 3.1-7 4-10.6 2zm-63.6 87.9c-7.1 5.9-14.5 11.7-22 17.1-3.8 2.7-9 1.8-11.6-2-2.7-3.7-1.8-8.9 1.9-11.6 7.2-5.1 14.2-10.5 20.9-16.2 3.5-3 8.8-2.6 11.7 0.9 2.7 3.1 2.6 7.6 0.2 10.7q-0.5 0.6-1.1 1.1zm93.2-152.8c-4.4-1.3-6.9-5.9-5.6-10.3 2.5-8.4 4.7-17.1 6.5-25.7 1-4.5 5.4-7.4 9.9-6.4 4.4 0.9 7.3 5.3 6.4 9.8-1.9 9.1-4.2 18.2-6.9 27.1q-0.5 1.6-1.5 2.8c-2 2.5-5.5 3.7-8.8 2.7zm-153.8 193.6c-8.2 4.2-16.7 8.2-25.3 11.8-4.2 1.8-9.1-0.2-10.8-4.4-1.8-4.3 0.2-9.1 4.4-10.9 8.1-3.4 16.2-7.2 24-11.3 4-2.1 9.1-0.5 11.2 3.5 1.6 3.1 1.1 6.6-0.9 9.1-0.7 0.9-1.6 1.6-2.6 2.2zm-68.1 26.5c-9 2.3-18.1 4.4-27.2 6-4.5 0.8-8.9-2.2-9.7-6.7-0.8-4.5 2.2-8.8 6.7-9.6 8.7-1.6 17.4-3.5 25.9-5.8 4.4-1.2 9 1.4 10.2 5.9 0.7 2.7 0 5.4-1.6 7.4-1.1 1.3-2.5 2.3-4.3 2.8zm-72.2 11c-9.3 0.4-18.7 0.4-27.9 0-4.6-0.2-8.2-4.1-8-8.7 0.2-4.5 4.1-8.1 8.7-7.9 8.7 0.4 17.7 0.4 26.5 0 4.5-0.2 8.4 3.4 8.6 7.9 0.1 2.1-0.6 4.1-1.8 5.6-1.5 1.8-3.7 3-6.1 3.1zm-73-5c-9.1-1.6-18.3-3.7-27.2-6.1-4.4-1.2-7-5.8-5.9-10.2 1.2-4.4 5.8-7 10.2-5.9 8.5 2.3 17.2 4.3 25.9 5.9 4.5 0.8 7.5 5.1 6.7 9.6-0.3 1.4-0.9 2.7-1.7 3.8-1.9 2.2-4.9 3.5-8 2.9zm-70.1-20.9c-8.5-3.6-16.9-7.6-25.1-11.9-4.1-2.2-5.7-7.2-3.5-11.3 2.1-4 7.1-5.6 11.2-3.4 7.8 4.1 15.8 7.9 23.9 11.3 4.3 1.8 6.2 6.7 4.4 10.9q-0.4 1.1-1.2 2c-2.2 2.8-6.2 3.9-9.7 2.4zm-63.7-35.7c-5.5-4-11-8.2-16.3-12.4q-2.9-2.4-5.7-4.8c-3.5-2.9-4-8.2-0.9-11.7 2.9-3.5 8.2-3.9 11.7-0.9q2.6 2.2 5.4 4.4c5 4.1 10.2 8.1 15.5 11.9 3.7 2.6 4.6 7.8 1.9 11.5q-0.1 0.3-0.3 0.5c-2.7 3.3-7.7 4.1-11.3 1.5z"/><path class="i" d="m1184.9 892.6c1-1.3 1.7-2.9 1.8-4.7 0.3-4.5 0.5-9.1 0.7-13.6 0.1-4.6-3.5-8.4-8.1-8.5-4.6-0.2-8.4 3.5-8.6 8-0.1 4.4-0.3 8.7-0.6 13-0.3 4.6 3.2 8.5 7.7 8.8 2.9 0.2 5.4-1 7.1-3z"/></g><path class="i" d="m1091.4 785c-0.4-1.6-1.7-2.8-3.3-3l-46.9-6c-9.4-20-21.9-38.7-37.6-55.2l11.6-45.8c0.4-1.6-0.2-3.3-1.6-4.2l-47.4-31.1c-1.4-0.9-3.2-0.8-4.5 0.2l-37.4 28.9c-21.4-7.8-43.5-11.9-65.6-12.4l-24.2-40.7c-0.8-1.4-2.5-2.1-4.1-1.8l-55.5 11.6c-1.7 0.3-2.9 1.6-3.1 3.3l-6 46.9c-20 9.3-38.7 21.9-55.2 37.5l-45.8-11.6c-1.6-0.4-3.3 0.3-4.2 1.7l-31.1 47.4c-0.9 1.4-0.8 3.2 0.2 4.5l28.9 37.4c-7.8 21.3-11.9 43.5-12.4 65.5l-40.6 24.2c-1.5 0.9-2.2 2.5-1.9 4.2l11.6 55.5c0.3 1.6 1.7 2.8 3.3 3.1l46.9 5.9c9.3 20.1 21.9 38.8 37.6 55.2l-11.7 45.8c-0.4 1.6 0.3 3.3 1.7 4.2l47.4 31.1c1.4 0.9 3.2 0.9 4.5-0.2l37.4-28.9c21.3 7.8 43.5 11.9 65.6 12.5l24.2 40.6c0.8 1.4 2.5 2.1 4.1 1.8l55.5-11.5c1.6-0.4 2.9-1.7 3.1-3.4l6-46.9c20-9.3 38.7-21.8 55.1-37.5l45.8 11.6c1.6 0.4 3.3-0.2 4.2-1.6l31.1-47.5c0.9-1.3 0.9-3.2-0.1-4.5l-28.9-37.3c7.7-21.4 11.8-43.5 12.4-65.6l40.6-24.2c1.4-0.8 2.2-2.5 1.8-4.1z"/><path fill-rule="evenodd" class="b" d="m891.9 905.5c-23.1 21.3-59.3 19.7-80.5-3.4-10.4-11.2-15.7-25.8-15-41 0.6-15.2 7.1-29.3 18.4-39.6 23.1-21.2 59.2-19.7 80.5 3.4 19.4 21.1 19.8 52.9 2.3 74.5q-2.6 3.2-5.7 6.1zm-82.2-43.8c-0.5 11.6 3.5 22.8 11.4 31.4 16.4 17.7 44.1 18.9 61.8 2.6 17.8-16.3 18.9-44 2.6-61.8-16.3-17.7-44-18.9-61.7-2.6q-2.5 2.3-4.5 4.8c-5.9 7.2-9.2 16.1-9.6 25.6z"/><path class="b" d="m960.9 952.2q4.5-5.6 8.5-11.7 1.2-1.9 2.4-3.8c3.9-6.4 7.3-13.2 10.2-20.1q0-0.1 0.1-0.2 0.1-0.4 0.3-0.8 0.3-0.8 0.6-1.6c0.5-1.4 0.1-2.9-1-3.8q-0.4-0.3-0.9-0.5c-1.7-0.7-3.6 0.2-4.3 1.9-3.4 8.8-7.8 17.3-13 25.3-25.9 39.6-69.5 60.8-113.6 60.2-24.5-0.3-49.3-7.3-71.3-21.8q-5.8-3.8-11.1-8.1c-23.8-19.3-40.1-45.9-46.4-76.3-7.3-35-0.5-70.6 19.1-100.4 40.4-61.6 123.3-78.9 184.8-38.5q5.7 3.7 11 8c15.2 12.3 27.5 27.8 36 45.4q0.4 0.7 0.9 1.2c1 0.7 2.4 0.9 3.6 0.4 1.6-0.8 2.3-2.8 1.5-4.5-8.9-18.5-21.9-34.7-37.8-47.7q-5.5-4.4-11.5-8.4c-64.6-42.3-151.7-24.2-194.1 40.4-20.5 31.3-27.6 68.8-20 105.4 6.6 31.9 23.7 59.9 48.7 80.2q5.6 4.5 11.7 8.5c31.3 20.5 68.7 27.6 105.4 20 31.9-6.6 59.9-23.7 80.2-48.7z"/><g style="opacity:.3"><path class="i" d="m1440 559.2c1.4-1.7 1.5-4.2 0.2-6.1-2.5-3.6-5.1-7.2-7.8-10.6-1.7-2.2-4.9-2.6-7.2-0.9-2.2 1.7-2.6 5-0.9 7.2 2.6 3.3 5.1 6.7 7.5 10.1 1.6 2.3 4.8 2.9 7.1 1.3q0.6-0.4 1.1-1z"/><path class="i" d="m1414.3 529.3c-2 2-5.2 2-7.3 0-5-5-10.4-9.9-16-14.4q-1.7-1.4-3.5-2.8c-2.3-1.7-2.7-5-0.9-7.2 1.7-2.1 4.9-2.6 7.2-0.9q1.8 1.5 3.7 2.9c5.8 4.8 11.5 9.8 16.8 15.1 1.9 1.9 2 4.9 0.4 6.9q-0.2 0.2-0.4 0.4zm-48.4-31.9c-7.4-4.5-15.2-8.5-23.1-12-2.6-1.1-3.8-4.2-2.6-6.7 1.1-2.6 4.1-3.8 6.7-2.7 8.3 3.7 16.5 7.9 24.3 12.6 2.4 1.4 3.2 4.6 1.8 7q-0.2 0.3-0.5 0.6c-1.5 2-4.3 2.5-6.6 1.2zm-47.6-21c-8.3-2.5-16.8-4.5-25.4-5.9-2.8-0.5-4.7-3.1-4.2-5.9 0.5-2.8 3.1-4.7 5.9-4.2 9 1.5 17.9 3.6 26.7 6.2 2.7 0.8 4.2 3.6 3.4 6.4q-0.3 1-0.9 1.7c-1.3 1.6-3.4 2.3-5.5 1.7zm-51.3-8.6c-8.7-0.4-17.5-0.2-26.1 0.5-2.8 0.2-5.3-1.9-5.5-4.8-0.2-2.8 1.9-5.3 4.7-5.5 9-0.7 18.2-0.9 27.3-0.5 2.9 0.1 5.1 2.5 4.9 5.4 0 1.1-0.4 2.1-1.1 3-1 1.2-2.5 1.9-4.2 1.9zm-51.9 4.1c-8.5 1.8-17 4.1-25.2 6.8-2.6 0.9-5.6-0.5-6.5-3.2-0.9-2.7 0.6-5.6 3.3-6.5 8.6-2.9 17.4-5.3 26.3-7.1 2.8-0.6 5.5 1.2 6.1 4 0.3 1.5-0.1 3.1-1 4.2-0.8 0.9-1.8 1.6-3 1.8zm-49.3 16.6c-7.8 3.8-15.4 8.1-22.7 12.8-2.4 1.5-5.6 0.8-7.1-1.6-1.5-2.4-0.9-5.5 1.5-7.1 7.6-4.9 15.7-9.4 23.9-13.3 2.5-1.2 5.6-0.2 6.8 2.4 0.9 1.8 0.6 4-0.6 5.4q-0.7 0.9-1.8 1.4zm-43.7 28.2c-6.6 5.5-13 11.6-18.9 17.9-2 2.1-5.2 2.2-7.3 0.3-2.1-2-2.1-5.2-0.2-7.3 6.2-6.6 12.9-13 19.8-18.8 2.2-1.8 5.4-1.5 7.2 0.7 1.6 1.9 1.6 4.6 0.1 6.5q-0.3 0.4-0.7 0.7zm-56.5 62.1c-2.5-1.4-3.4-4.5-2-7 3.8-6.9 8-13.7 12.6-20.2q1-1.4 2.1-2.9c1.6-2.3 4.9-2.8 7.2-1.1 2.3 1.7 2.8 4.9 1.1 7.2q-1 1.3-2 2.7c-4.3 6.2-8.4 12.7-12 19.2q-0.2 0.5-0.5 0.8c-1.6 1.9-4.3 2.5-6.5 1.3z"/></g><g style="opacity:.3"><path class="i" d="m1428 821.1c-5.8 6.9-12 13.5-18.5 19.6-2 1.9-5.3 1.8-7.2-0.2-2-2.1-1.8-5.4 0.2-7.3 6.2-5.8 12.1-12.1 17.6-18.7 1.8-2.2 5-2.5 7.2-0.6 2.2 1.8 2.5 5 0.7 7.1q0 0.1 0 0.1zm8.8-20.1c-2.4-1.6-3.1-4.8-1.5-7.1 4.6-7.2 8.8-14.7 12.6-22.4 1.2-2.5 4.3-3.6 6.9-2.3 2.5 1.2 3.6 4.3 2.3 6.8-3.9 8.1-8.4 15.9-13.2 23.4q-0.2 0.3-0.3 0.5c-1.7 2-4.6 2.5-6.8 1.1zm-47.9 56.9c-7.2 5.3-14.9 10.2-22.6 14.5-2.5 1.4-5.6 0.5-7-1.9-1.4-2.5-0.5-5.6 1.9-7 7.5-4.2 14.7-8.9 21.6-13.9 2.3-1.7 5.5-1.2 7.2 1.1 1.4 1.9 1.3 4.5-0.2 6.3q-0.4 0.5-0.9 0.9zm72-103.5c-2.7-1-4.1-3.9-3.2-6.6 2.8-8 5.1-16.3 6.9-24.7 0.5-2.8 3.3-4.5 6-3.9 2.8 0.5 4.6 3.3 4 6-1.9 8.8-4.3 17.5-7.2 26q-0.3 0.8-0.9 1.5c-1.3 1.7-3.5 2.4-5.6 1.7zm-118.8 129.7c-8.3 3.4-16.8 6.3-25.5 8.7-2.7 0.8-5.5-0.8-6.3-3.6-0.7-2.7 0.9-5.5 3.6-6.3 8.2-2.3 16.4-5 24.3-8.3 2.6-1.1 5.6 0.2 6.7 2.8 0.7 1.8 0.4 3.8-0.8 5.2-0.5 0.7-1.2 1.2-2 1.5zm-51.8 14.3c-8.8 1.3-17.8 2.1-26.7 2.3-2.9 0.1-5.2-2.1-5.3-5-0.1-2.8 2.1-5.2 5-5.2 8.5-0.3 17.1-1 25.5-2.3 2.8-0.4 5.4 1.5 5.9 4.3 0.2 1.5-0.2 2.9-1.1 4-0.8 1-1.9 1.7-3.3 1.9zm-53.6 1.4c-8.9-0.8-17.9-2.2-26.6-4.1-2.8-0.6-4.5-3.4-3.9-6.1 0.6-2.8 3.3-4.6 6.1-3.9 8.3 1.8 16.8 3.1 25.3 3.9 2.9 0.3 4.9 2.8 4.7 5.6-0.1 1-0.5 2-1.1 2.7-1.1 1.3-2.7 2.1-4.5 1.9z"/><path class="i" d="m1477.5 701.2c0.6-0.8 1-1.7 1.1-2.8 0.4-4.4 0.6-8.8 0.7-13.1 0.1-2.8-2.1-5.2-4.9-5.3-2.9 0-5.2 2.2-5.3 5-0.1 4.1-0.4 8.3-0.7 12.5-0.3 2.8 1.8 5.3 4.6 5.6 1.8 0.1 3.4-0.6 4.5-1.9z"/></g><path class="i" d="m1415.5 625.6c-0.2-1.1-1.1-1.9-2.2-2.1l-31.4-4c-6.2-13.4-14.6-25.9-25.1-36.9l7.8-30.6c0.3-1.1-0.2-2.3-1.1-2.9l-31.7-20.8c-1-0.6-2.2-0.5-3.1 0.1l-25 19.4c-14.3-5.2-29.1-8-43.8-8.3l-16.2-27.2c-0.6-1-1.7-1.4-2.8-1.2l-37.2 7.7c-1 0.2-1.9 1.1-2 2.2l-4 31.4c-13.4 6.2-25.9 14.6-36.9 25.1l-30.7-7.7c-1.1-0.3-2.2 0.1-2.8 1.1l-20.8 31.7c-0.6 0.9-0.6 2.1 0.1 3l19.4 25c-5.3 14.3-8 29.1-8.4 43.9l-27.1 16.2c-1 0.5-1.5 1.7-1.3 2.7l7.8 37.2c0.2 1.1 1.1 1.9 2.2 2.1l31.4 4c6.2 13.4 14.6 25.9 25.1 36.9l-7.8 30.6c-0.3 1.1 0.2 2.2 1.1 2.8l31.8 20.9c0.9 0.6 2.1 0.5 3-0.2l25-19.3c14.3 5.2 29.1 7.9 43.9 8.3l16.1 27.2c0.6 0.9 1.7 1.4 2.8 1.2l37.2-7.7c1-0.2 1.9-1.1 2-2.2l4-31.4c13.4-6.3 25.9-14.7 36.9-25.1l30.7 7.7c1.1 0.3 2.2-0.1 2.8-1.1l20.8-31.7c0.6-0.9 0.6-2.1-0.1-3l-19.4-25c5.3-14.3 8-29.1 8.4-43.9l27.1-16.2c1-0.6 1.5-1.7 1.3-2.8z"/><path fill-rule="evenodd" class="b" d="m1282.5 706.7c-7.6 7-17.5 10.6-27.9 10.2-10.3-0.4-19.9-4.9-26.9-12.5-14.5-15.8-13.5-40.4 2.3-54.9 15.7-14.5 40.4-13.5 54.8 2.3 7.1 7.7 10.7 17.6 10.3 27.9-0.4 8.5-3.4 16.4-8.6 22.8q-1.8 2.2-4 4.2zm-47.3-9.3c5.2 5.6 12.2 8.9 19.9 9.2 7.6 0.4 14.9-2.3 20.5-7.5 5.6-5.1 8.9-12.2 9.2-19.8 0.3-7.6-2.4-14.9-7.5-20.5-10.7-11.6-28.8-12.4-40.4-1.7q-1.5 1.4-2.8 3c-8.8 10.8-8.6 26.8 1.1 37.3z"/><path class="b" d="m1330.5 739.2q3.1-3.8 5.8-8c3.6-5.5 6.7-11.4 9.1-17.5q0.2-0.4 0.3-0.8c0.9-2.1 0.2-4.5-1.5-5.8q-0.6-0.5-1.4-0.8c-2.7-1.1-5.6 0.3-6.6 2.9-2.2 5.7-5.1 11.2-8.5 16.4q-0.2 0.4-0.5 0.8c-8.1 12.1-18.9 21.8-31.5 28.3-6.8 3.6-14.2 6.3-21.9 8q-0.1 0-0.2 0-0.3 0.1-0.5 0.1c-22.7 4.7-45.7 0.3-65-12.3q-3.8-2.5-7.2-5.3c-15.4-12.5-26-29.7-30.1-49.4-4.7-22.6-0.3-45.7 12.4-65 12.6-19.3 32-32.5 54.7-37.2 22.6-4.7 45.6-0.4 65 12.3q3.6 2.4 7 5.2c9.9 7.9 17.8 18 23.4 29.4q0.5 1 1.3 1.7c1.5 1.2 3.7 1.6 5.5 0.7 2.6-1.3 3.6-4.3 2.4-6.9-6.2-12.8-15.1-24-26.1-32.9q-3.8-3.1-7.9-5.8c-21.6-14.2-47.4-19.1-72.7-13.8-25.3 5.3-47.1 20-61.2 41.7-14.2 21.6-19.1 47.4-13.8 72.7 4.5 22 16.4 41.3 33.6 55.3q3.8 3.1 8 5.9c41.9 27.4 97.3 18.1 128.1-19.9z"/><path class="j" d="m813.6 3164.2c0 0-5.8 31-8.8 61.7-1.2 12 8 22.6 20 23.2 41 2.1 128.5 6.2 159.9 5.1 4.7-0.1 7.9-4.9 6.2-9.4-1.5-3.7-4.3-6.7-7.8-8.3l-144-67.9z"/><path class="k" d="m809.3 3145.9l4 37.2c0 0 25.2 12.1 42.7-1.1l-10.1-41.4z"/><path class="l" d="m819.2 2447.7c-2 9.7-14.8 483.9 33.9 697 0.8 3.4-1 7-4.3 8.3-7.9 3.1-23.1 7.6-41.4 8-5.7 0.1-10.7-3.6-12.3-9-14-49.5-81.1-297.2-87.9-533.3-7.6-263.9 0.1-9 0.1-9l7.5-163z"/><path class="m" d="m647.1 3178.8c0 0-8.9 15.6-17.8 57.2-1.6 7.5 3.6 14.8 11.2 15.6 13.5 1.4 34.3 3.4 51 3.4 7.7 0 13.7-6.6 12.9-14.2-1.7-15.3-7.2-40.3-24.8-59.9z"/><path class="n" d="m639.8 3131l9.8 56.3c0 0 10.1 7.6 30.3 2.3l-4.3-60.4z"/><path class="o" d="m618.4 2460.4c-43.8 249.8 3.1 618.6 19.4 690.8 1 4.4 4.6 7.8 9 8.6 7.6 1.3 20.1 2.5 32.5-1 4.2-1.2 7.3-5 7.5-9.4 2.8-58.2 2.1-416 42.1-557 2-7.2 6.5-13.4 12.6-17.6l75.5-52.6 6.5-86.1z"/><path class="p" d="m887.2 1988.7c-124.3-3.2-261.7 30.1-261.7 30.1-39.1 215.8-10.9 465.4-10.9 465.4 95.9 26.1 204.8-13.5 204.8-13.5 16.9-90.2 93.9-343.7 93.9-343.7 60.8-6.9 111-24 152.4-46.7-31.1-36.8-45.5-83.2-51.6-110.7-44.1 13.2-88.6 20.1-126.9 19.1z"/><path class="q" d="m1256 1809.2c-12.1-14.9-27.6-8.1-27.6-8.1-19 77.1-115.5 138.8-214.3 168.5 6.1 27.5 20.5 73.9 51.6 110.7 164.3-90.4 190.3-271.1 190.3-271.1z"/><path class="r" d="m1253 1812.9c1.2 4.1-13.6 10.1-22.2-6.6-0.2-7.9-4.7-42.1 0.1-48.5 25.6-34.3 75.2-77.1 75.2-77.1 8.2 8.2 1.3 16.2 1.3 16.2l-24.1 24.6c4.9 9 10.9 16.7 13.7 27.6 2 8.3 0.6 17.1-3.6 24.6-4.3 7.5-10.1 17.2-15.5 24.8-10.4 14.4-24.9 14.4-24.9 14.4z"/><path class="s" d="m1272.7 1737.5l-21.9 18.2-6.9 18.3 19.1 21.6c0 0 6.9-36.3 11.8-44.1 4.9-7.8 2.4-11.7-2.1-14z"/><path class="t" d="m672 2139.6l-46.5-120.8c0 0-116.8 77.8-136.9 177.6 21.9 1.8 61.8 7.9 100.7 28 9-47.1 82.7-84.8 82.7-84.8z"/><path class="u" d="m772.3 2253.8c0 0-131 72.4-174.4 9.1-9-13.1-11-26.1-8.6-38.5-38.9-20.1-78.8-26.2-100.7-28-6 30.1-3.3 62.2 14.1 94.8 75.7 141.6 286.6-5.1 286.6-5.1z"/><path class="v" d="m762.3 1886.6l-40.7 114c-0.6 1.9 0.1 4 1.9 5 10.7 6 49.3 23.6 96.4-5.6 4.9-3 8.3-8 9.1-13.8l13.7-98.8z"/><path class="w" d="m849.3 1781.6c0 0 42.6 82.1 36.8 115.1-5.9 32.9-59.7 30-106.4 2.8l-32-88.6z"/><path class="x" d="m782.1 1856.2c2-0.9 2.7-3.2 1.6-5-3.5-5.3-9.9-16.2-11.9-25.7 0 0-7.7-5.1 20-11.5 27.7-6.3 69.1-16.2 78-39.7 8.7-22.9-13-80.8-48.9-35.1-1.3 1.7-4 1.7-5.3-0.1-5.8-7.6-20.9-23.4-42.2-14.1-19.9 8.7-22.3 23.2-22.1 30.6 0.1 2.1-1.9 3.8-4 3.4-10-2-34.1-3.9-45.6 20.7-9.4 20.2-3.5 31.8 1.9 37.5 1.8 1.8 1 4.8-1.5 5.6-6.6 1.9-15.2 7.4-14.4 22.9 0.9 21.4 24.8 19.7 31.6 18.8 1.2-0.1 2.3 0.2 3 1.1 5.8 6.5 31.8 34.1 60.2 37.7 2.5 0.3 4.4-2.1 3.6-4.4l-12-35.9c-0.5-1.7 0.3-3.5 1.9-4.2z"/><path class="y" d="m787 1861.3c0 0-30.7-21.5-33.1-3.7-2.4 17.9 27.6 26.2 42.6 19.6z"/><path class="z" d="m745.6 2368.2l71.3-249.2c0.8-2.8 3.3-4.9 6.2-5.2 12.9-1.6 50.4-5.8 93.6-9.4 52.2-4.5 112.7-8 148.8-5 5.2 0.4 8.3 5.9 6 10.5-20.6 41.6-105.2 210.9-147.5 266.3-1.4 1.8-3.6 2.9-5.9 2.9l-165.6-1.6c-4.8 0-8.3-4.6-6.9-9.3z"/><path class="A" d="m762.8 2308c0 0-9.9-40.9-5.9-55.4 4-14.5 11.8-33.1 37.7-29 25.9 4.2 56.4 15.1 56.4 15.1 0 0-1.5 18.9-21.2 12.8l12.2 9.4c0 0-1.8 15.2-18.4 7.1l11.4 12.5c0 0-7.2 12.4-19.4 4.5-12.2-8-18.1 27.9-52.8 23z"/><path class="i" d="m912 2178.8c0 11.5 9.4 20.9 20.9 20.9 11.6 0 21-9.4 21-20.9 0-11.6-9.4-21-21-21-11.5 0-20.9 9.4-20.9 21z"/><path class="b" d="m825 2192.6l14.5-49.3c1.8-6.1 6.7-10.6 12.7-11.9 45.6-9.5 170.3-11.5 171.5-11.5l-0.1-5.6c-5.1 0.1-126.4 2.1-172.5 11.7-8.1 1.6-14.5 7.7-16.9 15.7l-14.5 49.3z"/><path class="B" d="m2680 1821.9c2-3.8 7.6-3.2 8.7 0.9 4.2 15.3 14.5 41.8 36 51.3q1.6 0.7 3.1 1.4c0.9-2.9 1-6.3-1.4-9.9-6.7-10.2 5.4-24.1 5.4-24.1 0 0 0.8 12.3 10.1 20 8.1 6.7 11.9 21.5 6.5 33.6-11.7 45.2-29.1 105 38.8 148.7 67.8 43.6 163.4-82.4 163.4-82.4l-47.4 150.3c0 0-73.3 54.1-158.4-21.9-85.2-76-28.7-186.5-28.7-186.5 0 0-65-26.2-36.1-81.4z"/><path class="C" d="m2962.5 1740.4c0 0-19.7-88.2 81.3-64.8 0 0 49.1-8 51.6 38.3 0 0 31.6 20.8 8.4 60.8 0 0 94-36.2 134.9 46.1 40.9 82.3 3.3 127.6-36.1 139.4 0 0 31.9 16.1 16.8 52.3-15.1 36.2-91.7 61.8-137 17.7 0 0-128.7 17-126.2-73.9 0 0-59.8-38.7 3.1-113.8 62.9-75.2 3.2-102.1 3.2-102.1z"/><path class="D" d="m2956.9 1944.8c20.3-6 79.4-17.3 135.6 34.6 9.6 8.8 13.5 22.2 10.1 34.7-15.1 55.6-55 219.8-20 290.9 0 0-61.6 67.9-128.8 13.2 0 0-30.1-131.4-69.6-189-27.2-39.8 43.5-149.5 61.4-176 2.7-4 6.7-7 11.3-8.4z"/><path class="E" d="m3013 1834.4c0 0 30 84.9 32.3 122.4 0 0-33.2 15.1-64.5-10.4 0 0-3.3-84.8-8-100z"/><path class="F" d="m2971.3 1718.6c0 0-78.6 109.9-31.6 141.8 46.9 31.9 102.8-46.2 102.8-46.2 0 0 18.2-60.1-0.8-80.5-19.1-20.4-70.4-15.1-70.4-15.1z"/><path class="G" d="m3007.6 1692.4c0 0-36.1 8.5-41.1 24.8-5.1 16.3 51.1 31.5 66.9 32.2l12.7 65.9c0 0 37.5-62 22.6-97.8-14.8-35.7-61.1-25.1-61.1-25.1z"/><path class="H" d="m3027.3 1806.2c0 0 30.6-35.4 42.7-12.4 12.2 23.1-27.5 40.4-41.2 29.1z"/><path class="I" d="m2875.4 2593.9c0.3 6-10.2 53.3-15.9 78.5-2.3 10.1-0.7 20.8 4.5 29.8l197.3 332c2.4 4.1 4.1 8.4 5.2 13 3.6 15.5 11.1 53.7 7.2 88.5l-10.2 21.2 44.1-10.1 9.6-118.5-12.5-7.6c-10.8-6.6-19.2-16.4-24-28.1-17.9-43.4-62.2-153.7-73.6-207.4-13-61.1-80.8-110.8-80.8-110.8l11.9-28.1z"/><path class="J" d="m3156.7 3106.1c0 0-23.9-37.8-26.7-52.5-2.8-14.8-10.6-40.7-25.3-32.9 0 0-6.9 71.4-4.5 99.4 2.4 27.9-31.6 27-31.6 27 0 0-9.4 1.3-16.2 8.2-4.7 4.7-1.4 12.9 5.3 13.3 11.1 0.7 28.8 0.9 47.3-2.6 6.5-1.3 11.3-6.8 11.7-13.4l4.9-82.2 30 37.9z"/><path class="K" d="m2993.3 2646.8c0 0 7 297 7.9 339.2 1 42.2-6.7 135.7-48.9 163.6l18.4 13.6c0 0 23-19.5 45.4-57.1 25.3-42.3 32.9-50 32.9-50l-8.4-17.2c-3.6-7.5-4.7-16-3-24.1 9.1-44.3 39.6-191.4 47.9-223.1 9.8-37.4 10.5-87.3-23.6-129.1-34.2-41.8-68.6-15.8-68.6-15.8z"/><path class="L" d="m3032.4 3176.6c1.3 0 2.4-0.9 2.6-2.2 1.4-9.9 7.2-49.6 12-59.9 5.5-11.8 23.5-61.3 0-65.5 0 0-58.3 85.1-69.4 96.6-11.2 11.5-25.3 4-25.3 4 0 0-10.9 3.2-19.2 13.7-3.9 5-0.2 12.4 6.1 12.4l39.3 0.4c11.4 0.1 21.6-6.8 25.9-17.4 6.9-17.2 18.7-42.6 32.6-53.8l-7.2 68.8c-0.2 1.6 1 2.9 2.6 2.9z"/><path class="M" d="m2944.6 2286.1c0 0 8.8 28.2-4.8 74.7l-84.3 294.3c-1.3 4.6 1.2 9.5 5.7 11.1 25.2 9.1 108.1 34.6 221.3 26.8 5.7-0.4 10.4-4.4 11.7-10 7.4-33.5 32.9-148 38.1-171.5 20-89.7 42.3-186.4-55.8-244.8-45.2 19.3-87.3 30.7-131.9 19.4z"/><path class="N" d="m3100.6 1990.5c0 0 95.9 79.7 119.7 188.6 23.8 108.9-140.1 120.5-140.1 120.5 0 0-22.3-24.8-48.7-16-26.4 8.9-2.1-43.4 28.8-43.2 31 0.1 16.6 24.6 60.4 4.7 42.6-19.2 68.9-78.9-39.8-169.4-6.3-5.2-11.3-11.9-14.3-19.5-21.2-53.2-4.4-88.1 34-65.7z"/><path class="O" d="m2466.2 2804.2h34.2v370h-34.2z"/><path class="O" d="m2633.2 3181.3h-299.7v-19.8c0-1.3 1.1-2.4 2.5-2.4h294.7c1.3 0 2.5 1.1 2.5 2.4z"/><path class="O" d="m2689.8 2790.6c0 21.5-17.6 39.1-39.1 39.1h-322.2c-21.5 0-39.1-17.6-39.1-39.1v-35.4c0-21.5 17.6-39.1 39.1-39.1h322.2c21.5 0 39.1 17.6 39.1 39.1z"/><path class="P" d="m2180.1 3061.8c0 0-110.6 47.7-104.3 97.5 0 0 114.3-21.9 134.8-54.6 20.5-32.6 9.2-51.6 9.2-51.6z"/><path class="Q" d="m2207.2 3007.4l5.6 48.5c0.8 7.4-3.2 14.6-10.2 17.1-3.4 1.2-8 2.1-14 2.1-8.4 0.1-15.9-5.5-18.1-13.6l-10.9-39.3z"/><path class="R" d="m2448.8 2635.2c0 0-203.4-9.4-304.7 49.6-101.2 59 5.2 342.3 5.2 342.3 0 0 26.4 5.7 64.5-14.6 0 0-54.4-207.4 40-243.5 106.1-40.6 215.9-30.7 215.9-30.7l-20.4-96.7z"/><path class="S" d="m2098.1 3137.5c23.1-5.1 91.7-33.5 102.1-33.1 10.4 0.3 25.2 15.9 25.2 15.9 0 0 2.5 8.6-4.9 20.8-17.7 13.8-55.8 39.1-100 41.9-32.6 2-52.2-10.9-63.4-23.5 9.8-9.6 25.6-18.7 41-22z"/><path class="T" d="m2120.5 3183c44.2-2.8 82.3-28.1 100-41.9-5.1 8.3-14.7 18.3-32.7 28.5-44.7 25.2-118.7 21.6-133.3 15.9-11.8-4.6-8.1-15.6 2.6-26 11.2 12.6 30.8 25.5 63.4 23.5z"/><path class="U" d="m2249.7 3094.9c-1.6 5.8-17.8 23-27.1 32.6-4.5 4.5-10.9 6.5-17.2 5.1-3.9-0.8-8.4-2.2-12.2-4.3-5.8-3.1-7.8-10.5-4.7-16.3l23.7-43z"/><path class="V" d="m2650.4 2618.1c0 0 17.7 126-33.6 151.7-51.4 25.8-164 42.6-202.7 108-38.8 65.3-108.5 193.5-171.9 230.4 0 0-36.2-11.8-46.8-29.6 0 0 75.3-197.8 106.7-245.9 27.2-41.6 66.9-101.6 123.4-127.5 16.1-7.5 17.4-24.6 14.6-42.2l-5.2-32z"/><path class="W" d="m2174.5 2475.3c72 20.6 104.2-182 103.9-186.9l110.4 129c0 0-65.8 115.7-165 128-25.2 3.1-46.5-1.2-64.5-9.4 13.3-21.6 16.3-43 15.2-60.7z"/><path class="X" d="m2041.3 2409c31.3-12.9 57.9 12.9 57.9 12.9 31.1 31.8 55.8 47.8 75.3 53.4 1.1 17.7-1.9 39.1-15.2 60.7-38.7-17.8-61.3-53.7-70.7-71.6-3.3-6.5-11.2-9.2-17.7-6-6.7 3.2-13.5 8.1-13.9 14.7-0.9 13.2-16.5 14-16.6 9.1-0.1-4.8 12.1-30.8 12.1-30.8 0 0-36 23.1-50.1 32-14 8.8-26-5.8-26-5.8 0 0 33.5-55.7 64.9-68.6z"/><path class="Y" d="m2622.6 2205c0 0-96.7-65.9-330.3 53.4 0 0-24 30.5-12.8 64.9 11.3 34.3 150 220.4 155.4 307.7 0 0 94.8 55.9 217.9 0.5 0 0 41.3-230.6-30.2-426.5z"/><path class="Z" d="m2421.2 2120.7l38.3 74.9c3.8 7.4 3 16.4-2.3 22.9-10.5 13.2-32.4 30.9-69.9 19.5-11.2-3.4-19.7-12.4-22.4-23.8l-19.8-83.6z"/><path class="a0" d="m2694.3 2466.6c6.5-45.6-113.8-133.8-113.8-133.8l42.1-127.8c0 0 229.6 163.9 181.3 297.7-6.9 19.1-17.2 33.1-29.8 43-24.3-49.8-57.3-70.6-79.8-79.1z"/><path class="a1" d="m2526.4 2479.2c0 0 136.1 38 164.4-3.4 1.9-2.8 3-5.9 3.5-9.2 22.5 8.5 55.5 29.3 79.8 79.1-64.6 50.9-189.2-6.1-223.1-23.2-5.5-2.8-11.9-3.4-17.9-1.5-12 3.8-32.9 9.6-44.5 8.9-17-0.9-35.3 60.6-64.2 45 0 0 13.1-105 102-95.7z"/><path class="a2" d="m2372.2 1998.3c-1.2 1-51.6 89.1-77.3 134-7.8 13.7-1.9 31.1 12.6 37.3l11.1 4.8c15.2 6.5 47.9 12 60.7 1.6l81.1-85.6c0 0-60.9-115.7-88.2-92.1z"/><path class="a3" d="m2483.2 2067.1c10-5.6 21.9-16.9 12.6-36.9-9.5-20.3-28.2-22.1-40.2-20.8-4.9 0.5-9.3-2.6-10.7-7.3-0.8-2.6-2.8-5-7-5.7-5.8-0.9-9.4-6.8-7.8-12.4 2.8-10.8 2.3-25.5-15-36-30.9-18.7-59.7 8.5-67.8 32-8 23.6 26.6 42 48.7 45.7 16.8 2.9 25 22.2 28 31.4 0.9 2.9 0.4 6-1.2 8.5l-24.7 37.5c6.8 8.5 12.8 17.5 18.7 26.6 2.2-2.4 4.2-4.3 5.7-5.7 10.7-9.8 29.7-4.8 37.6-2.1 2.5 0.9 5.3 0.7 7.8-0.6 8.5-4.4 25.7-16.8 11.6-40.2-3-4.9-1.3-11.2 3.7-14z"/><path class="a4" d="m2407.9 2145.7c0 0 15.7-40.5 33.6-38.2 17.9 2.3 31.3 20.8 8.2 40-28.7 23.8-41.8-1.8-41.8-1.8z"/><path class="a5" d="m2352.6 2565.9q-0.3 0-0.7 0l-317.9-0.4c-7.9 0-14.3-6.3-14.3-14.2 0.1-7.9 6.5-14.4 14.3-14.2l317.9 0.3c7.9 0 14.3 6.4 14.3 14.3-0.1 7.6-6 13.8-13.6 14.2z"/><path class="a6" d="m1748.1 2277.2h264.8c19.6 0 37.3 11.3 45.7 28.9l122.4 259.6h-329.1c-12.6 0-23.9-7.7-28.5-19.4l-94.9-240.2c-5.5-13.9 4.7-28.9 19.6-28.9z"/><path class="i" d="m1934.7 2410.3c5.7 17.8 1.5 35.1-9.5 38.6-11 3.6-24.5-8-30.2-25.8-5.8-17.9-1.5-35.2 9.4-38.7 11-3.5 24.5 8 30.3 25.9z"/><path class="i" d="m1791.1 3247.8c-1.8 0-3.6-0.3-5.3-1.1-6.8-2.8-9.9-10.4-7-16.9l280.2-630.7c2.9-6.5 10.8-9.6 17.6-6.8 6.7 2.9 9.9 10.5 7 17l-280.3 630.7c-2.1 4.9-7.1 7.8-12.2 7.8z"/><path class="i" d="m2106.7 3247.8c-5.1 0-10.1-2.9-12.2-7.8l-280.3-630.7c-2.9-6.5 0.3-14.1 7-17 6.8-2.8 14.7 0.2 17.6 6.8l280.2 630.7c2.9 6.5-0.2 14.1-7 16.9-1.7 0.8-3.5 1.1-5.3 1.1z"/><path class="i" d="m2658.4 3247.8c-1.7 0-3.5-0.3-5.2-1.1-6.8-2.8-9.9-10.4-7-16.9l280.2-630.7c2.9-6.5 10.8-9.6 17.5-6.8 6.8 2.9 10 10.5 7 17l-280.2 630.7c-2.1 4.9-7.1 7.8-12.3 7.8z"/><path class="i" d="m2974.1 3247.8c-5.2 0-10.1-2.9-12.3-7.8l-280.2-630.7c-2.9-6.5 0.2-14.1 7-17 6.8-2.8 14.7 0.2 17.6 6.8l280.2 630.7c2.9 6.5-0.2 14.1-7 16.9-1.7 0.8-3.5 1.1-5.3 1.1z"/><path class="i" d="m3007 2579.6c0.7-4.1-0.3-8.4-2.7-11.6-2.4-3.3-5.9-5.2-9.7-5.2h-1274.8c-4.9 0-9.5 2.9-12.2 7.5-2.7 4.7-3 10.6-0.9 15.6l13.8 33.5c3.1 7.6 10 12.5 17.5 12.5h1247.9c7 0 13-5.5 14.3-13.2z"/></svg>