<svg xmlns="http://www.w3.org/2000/svg" viewBox="0 0 500 500"><g id="freepik--background-complete--inject-3"><rect y="382.4" width="500" height="0.25" style="fill:#ebebeb"></rect><rect x="396.59" y="389.21" width="25.97" height="0.25" style="fill:#ebebeb"></rect><rect x="306.97" y="391.01" width="8.69" height="0.25" style="fill:#ebebeb"></rect><rect x="430.71" y="398.49" width="19.19" height="0.25" style="fill:#ebebeb"></rect><rect x="52.46" y="390.89" width="16.25" height="0.25" style="fill:#ebebeb"></rect><rect x="74.06" y="390.89" width="36.83" height="0.25" style="fill:#ebebeb"></rect><rect x="201.66" y="395.11" width="93.68" height="0.25" style="fill:#ebebeb"></rect><path d="M237,337.8H43.91a5.71,5.71,0,0,1-5.7-5.71V60.66A5.71,5.71,0,0,1,43.91,55H237a5.71,5.71,0,0,1,5.71,5.71V332.09A5.71,5.71,0,0,1,237,337.8ZM43.91,55.2a5.46,5.46,0,0,0-5.45,5.46V332.09a5.46,5.46,0,0,0,5.45,5.46H237a5.47,5.47,0,0,0,5.46-5.46V60.66A5.47,5.47,0,0,0,237,55.2Z" style="fill:#ebebeb"></path><path d="M453.31,337.8H260.21a5.72,5.72,0,0,1-5.71-5.71V60.66A5.72,5.72,0,0,1,260.21,55h193.1A5.71,5.71,0,0,1,459,60.66V332.09A5.71,5.71,0,0,1,453.31,337.8ZM260.21,55.2a5.47,5.47,0,0,0-5.46,5.46V332.09a5.47,5.47,0,0,0,5.46,5.46h193.1a5.47,5.47,0,0,0,5.46-5.46V60.66a5.47,5.47,0,0,0-5.46-5.46Z" style="fill:#ebebeb"></path><rect x="62.44" y="77.28" width="272.63" height="160.54" transform="translate(397.51 315.1) rotate(180)" style="fill:#e6e6e6"></rect><rect x="58.22" y="77.28" width="272.63" height="160.54" transform="translate(389.07 315.1) rotate(180)" style="fill:#f5f5f5"></rect><rect x="122.77" y="28.81" width="143.53" height="257.49" transform="translate(352.08 -36.98) rotate(90)" style="fill:#fff"></rect><rect x="-4.38" y="155.95" width="143.53" height="3.19" transform="translate(224.93 90.16) rotate(90)" style="fill:#e6e6e6"></rect><rect x="61.35" y="178.25" width="266.37" height="11.42" transform="translate(389.07 367.93) rotate(180)" style="fill:#f5f5f5"></rect><g style="opacity:0.4"><rect x="49.76" y="68.33" width="25.74" height="139.34" style="fill:#e6e6e6"></rect><rect x="75.5" y="68.33" width="12.76" height="128.14" transform="translate(163.76 264.8) rotate(180)" style="fill:#f5f5f5"></rect><rect x="88.26" y="68.33" width="25.74" height="139.34" style="fill:#e6e6e6"></rect><rect x="114" y="68.33" width="12.76" height="128.14" transform="translate(240.76 264.8) rotate(180)" style="fill:#f5f5f5"></rect><rect x="126.76" y="68.33" width="25.74" height="139.34" style="fill:#e6e6e6"></rect><rect x="152.5" y="68.33" width="12.76" height="128.14" transform="translate(317.76 264.8) rotate(180)" style="fill:#f5f5f5"></rect><rect x="165.26" y="68.33" width="25.74" height="139.34" style="fill:#e6e6e6"></rect><rect x="191" y="68.33" width="12.76" height="128.14" transform="translate(394.76 264.8) rotate(180)" style="fill:#f5f5f5"></rect><rect x="203.76" y="68.33" width="25.74" height="139.34" style="fill:#e6e6e6"></rect><rect x="229.5" y="68.33" width="12.76" height="128.14" transform="translate(471.76 264.8) rotate(180)" style="fill:#f5f5f5"></rect><rect x="242.26" y="68.33" width="25.74" height="139.34" style="fill:#e6e6e6"></rect><rect x="268" y="68.33" width="12.76" height="128.14" transform="translate(548.76 264.8) rotate(180)" style="fill:#f5f5f5"></rect><rect x="280.76" y="68.33" width="25.74" height="139.34" style="fill:#e6e6e6"></rect><rect x="306.5" y="68.33" width="12.76" height="128.14" transform="translate(625.76 264.8) rotate(180)" style="fill:#f5f5f5"></rect><rect x="319.26" y="68.33" width="25.74" height="139.34" style="fill:#e6e6e6"></rect></g><rect x="254.29" y="225.62" width="119.3" height="194.25" transform="translate(636.69 8.81) rotate(90)" style="fill:#f0f0f0"></rect><rect x="296.46" y="196.03" width="34.97" height="176.08" transform="translate(598.01 -29.87) rotate(90)" style="fill:#f5f5f5"></rect><rect x="296.46" y="234.14" width="34.97" height="176.08" transform="translate(636.12 8.24) rotate(90)" style="fill:#f5f5f5"></rect><rect x="296.46" y="272.24" width="34.97" height="176.08" transform="translate(674.23 46.34) rotate(90)" style="fill:#f5f5f5"></rect><path d="M360.93,266.13H267a3.62,3.62,0,0,0,3.63,3.62h86.73A3.62,3.62,0,0,0,360.93,266.13Z" style="fill:#e6e6e6"></path><path d="M360.93,304.23H267a3.62,3.62,0,0,0,3.63,3.63h86.73A3.62,3.62,0,0,0,360.93,304.23Z" style="fill:#e6e6e6"></path><path d="M360.93,342.34H267a3.62,3.62,0,0,0,3.63,3.62h86.73A3.62,3.62,0,0,0,360.93,342.34Z" style="fill:#e6e6e6"></path><rect x="359.75" y="314.42" width="119.3" height="16.66" transform="translate(742.15 -96.65) rotate(90)" style="fill:#f5f5f5"></rect><path d="M391.18,237.35c-4.7-68.76-23.54-99.27-40.05-114.06C366.5,147.9,373.81,237.93,391.18,237.35Z" style="fill:#ebebeb"></path><path d="M392.8,237.53c5.8-53.36,21.4-76.55,34.71-87.59C414.78,168.65,406.29,238.48,392.8,237.53Z" style="fill:#ebebeb"></path><path d="M391.18,237.35c3.41-75.59-11.8-110.43-26.53-127.9C377.08,137.57,373.77,236.62,391.18,237.35Z" style="fill:#ebebeb"></path><path d="M390,247.05c7.15-75.15,21.81-110.35,34-128.23C412.05,147.23,401.9,245.75,390,247.05Z" style="fill:#ebebeb"></path><path d="M390,247c-4.28-81.57,5.07-121.83,14.57-143.15C396.92,136.41,401.75,243.5,390,247Z" style="fill:#ebebeb"></path><path d="M402.52,235.42v15.93a11.79,11.79,0,0,1-11.76,11.75h0A11.79,11.79,0,0,1,379,251.35V235.42Z" style="fill:#f5f5f5"></path><path d="M133.45,382.4h-49a2.28,2.28,0,0,1-2.26-2l-9.89-78.74a2.28,2.28,0,0,1,2.26-2.56h68.8a2.28,2.28,0,0,1,2.26,2.56l-9.9,78.74A2.28,2.28,0,0,1,133.45,382.4Z" style="fill:#ebebeb"></path><circle cx="154.04" cy="355.96" r="26.44" style="fill:#f5f5f5"></circle><path d="M71.23,297.49c-1.8,1.29-.37,21.21,2,25.62s16.36.61,33.1-.86,36.8,4.43,37.66.86,5.76-23,3.2-25.62c-2-2.07-26.71-2.07-37.54-.84S75,294.76,71.23,297.49Z" style="fill:#f5f5f5;opacity:0.7000000000000001"></path></g><g id="freepik--Shadow--inject-3"><ellipse id="freepik--path--inject-3" cx="250" cy="416.24" rx="193.89" ry="11.32" style="fill:#f5f5f5"></ellipse></g><g id="freepik--bubble-speech--inject-3"><rect x="144.51" y="83.61" width="25" height="1" style="fill:#519BC2"></rect><rect x="130.89" y="83.61" width="5.4" height="1" style="fill:#519BC2"></rect><path d="M303.34,121l-7.73-12.62a2.41,2.41,0,0,1-.35-1.25V99.78a12.71,12.71,0,0,0-12.68-12.67H126a12.71,12.71,0,0,0-12.67,12.67v68.6A12.71,12.71,0,0,0,126,181.05H282.58a12.71,12.71,0,0,0,12.68-12.67V125.93a2.39,2.39,0,0,1,2.39-2.4h4.24A1.69,1.69,0,0,0,303.34,121Z" style="fill:#fff"></path><path d="M282.58,181.55H126a13.19,13.19,0,0,1-13.17-13.17V99.78A13.19,13.19,0,0,1,126,86.61H282.58a13.19,13.19,0,0,1,13.18,13.17v7.32a1.91,1.91,0,0,0,.27,1l7.73,12.62A2.18,2.18,0,0,1,301.9,124h-4.25a1.88,1.88,0,0,0-1.34.56,1.85,1.85,0,0,0-.55,1.34v42.45A13.19,13.19,0,0,1,282.58,181.55ZM126,87.61a12.18,12.18,0,0,0-12.17,12.17v68.6A12.18,12.18,0,0,0,126,180.55H282.58a12.19,12.19,0,0,0,12.18-12.17V125.93a2.89,2.89,0,0,1,2.89-2.9h4.25a1.17,1.17,0,0,0,1-.61,1.15,1.15,0,0,0,0-1.2l-7.73-12.62a2.89,2.89,0,0,1-.42-1.51V99.78a12.19,12.19,0,0,0-12.18-12.17Z" style="fill:#519BC2"></path><path d="M275.21,106.74H133.39a2.29,2.29,0,0,1-2.28-2.29h0a2.29,2.29,0,0,1,2.28-2.28H275.21a2.29,2.29,0,0,1,2.29,2.28h0A2.3,2.3,0,0,1,275.21,106.74Zm-77.83,14.05h0a2.3,2.3,0,0,0-2.29-2.29h-61.7a2.29,2.29,0,0,0-2.28,2.29h0a2.29,2.29,0,0,0,2.28,2.29h61.7A2.3,2.3,0,0,0,197.38,120.79Zm57.75,0h0a2.3,2.3,0,0,0-2.29-2.29H214.65a2.29,2.29,0,0,0-2.28,2.29h0a2.29,2.29,0,0,0,2.28,2.29h38.19A2.3,2.3,0,0,0,255.13,120.79ZM151,137.13h0a2.3,2.3,0,0,0-2.29-2.29H133.39a2.29,2.29,0,0,0-2.28,2.29h0a2.29,2.29,0,0,0,2.28,2.28h15.32A2.29,2.29,0,0,0,151,137.13Zm122.44,0h0a2.3,2.3,0,0,0-2.29-2.29H233.89a2.29,2.29,0,0,0-2.28,2.29h0a2.29,2.29,0,0,0,2.28,2.28h37.26A2.29,2.29,0,0,0,273.44,137.13Zm-49.61,0h0a2.29,2.29,0,0,0-2.28-2.29h-61a2.3,2.3,0,0,0-2.29,2.29h0a2.29,2.29,0,0,0,2.29,2.28h61A2.29,2.29,0,0,0,223.83,137.13Zm-36.5,16.33h0a2.29,2.29,0,0,0-2.28-2.28H133.39a2.29,2.29,0,0,0-2.28,2.28h0a2.29,2.29,0,0,0,2.28,2.29h51.66A2.29,2.29,0,0,0,187.33,153.46Z" style="fill:#519BC2;opacity:0.2"></path></g><g id="freepik--Character--inject-3"><polygon points="268.9 389.46 284.9 393.04 278.27 410.44 264.88 407.46 268.9 389.46" style="fill:#ffc3bd"></polygon><polygon points="268.9 389.46 284.91 393.05 281.19 402.79 266.65 399.55 268.9 389.46" style="opacity:0.2"></polygon><path d="M310.89,322c8.14-23.25,26.45-47.51,18.43-69.65l-47.22-.14s-3.18,50.61-5.6,72.11c-2.52,22.36-10.74,71.79-10.74,71.79l18.14,4S303.86,363.14,310.89,322Z" style="fill:#519BC2"></path><path d="M329.82,275.45c-3,12.37-9.94,25-15.35,37.52C313.63,292.35,319.35,268,329.82,275.45Z" style="opacity:0.2"></path><path d="M253.25,405.91s4.17,1.93,9.6-1.12a2.33,2.33,0,0,1,2,0c2.63,1.12,9.68,3.87,14.38,3.28a.6.6,0,0,1,.66.77,46.16,46.16,0,0,0-1.79,7.52l-4.21-.91-.46-1.51-2.31.93a99.82,99.82,0,0,1-20.34-5.4C250.31,406.79,253.25,405.91,253.25,405.91Z" style="fill:#263238"></path><polygon points="341.23 392.53 356.59 392.68 356.75 410.79 343.92 410.69 341.23 392.53" style="fill:#ffc3bd"></polygon><polygon points="341.24 392.54 356.6 392.68 356.69 402.82 342.74 402.7 341.24 392.54" style="opacity:0.2"></polygon><path d="M359.94,322c-.5-23.15,2.5-52.91-.93-68.71l-49.79-1.08s13,49.93,17.34,71.37c4.52,22.3,14.56,76,14.56,76l16.6,0S364.78,351.42,359.94,322Z" style="fill:#519BC2"></path><path d="M307.45,166.75a11.21,11.21,0,0,0-15.84,0,2.41,2.41,0,0,0-.22.18l-.34.29-.72.61-1.53,1.26c-1,.82-2.09,1.65-3.18,2.43a67.59,67.59,0,0,1-6.54,4.22,42.15,42.15,0,0,1-6.5,2.92c-1.05.34-2.09.57-3.09.8a19.35,19.35,0,0,1-2.09.28c-.83-.33-1.67-.68-2.51-1.08s-1.72-.83-2.61-1.23-1.74-.92-2.61-1.42c-1.75-1-3.5-2-5.24-3.15-.87-.57-1.75-1.13-2.61-1.72l-1.29-.88a13.2,13.2,0,0,0-1.21-.78l-1.74-.81a5.48,5.48,0,0,0-7.27,7.28l.46,1,.43.9.91,1.73c.64,1.12,1.3,2.23,2,3.29s1.47,2.12,2.26,3.13,1.64,2,2.52,3a52.19,52.19,0,0,0,5.76,5.44,49.53,49.53,0,0,0,6.75,4.61,6.14,6.14,0,0,0,2.32.79l1.13.14a40.85,40.85,0,0,0,6.61.27,42.77,42.77,0,0,0,6.28-.83,56.6,56.6,0,0,0,5.86-1.61q2.81-1,5.41-2.22a65.21,65.21,0,0,0,9.71-5.65c1.5-1.07,3-2.16,4.39-3.35.7-.6,1.41-1.19,2.1-1.83l1-1,.54-.52.64-.65A11.21,11.21,0,0,0,307.45,166.75Z" style="fill:#ffc3bd"></path><path d="M232.23,151.3a11.24,11.24,0,0,0-14.87,6.06,11.25,11.25,0,0,0-14.76,6.33,11.5,11.5,0,0,0,6.56,14.63l14.18,5.82a6.8,6.8,0,0,0,8.87-3.72L238,166.25A11.49,11.49,0,0,0,232.23,151.3Z" style="fill:#519BC2"></path><path d="M251.25,171.52l-1.63,6.25c-3.94,5.54-10.18-.75-10.18-.75l-6.17-2.53a3.41,3.41,0,0,1-1.71-4.09l1.11-4.38a3.56,3.56,0,0,1,4.08-2.86l5.83,1.67a7.14,7.14,0,0,1,3,1.61Z" style="fill:#ffc3bd"></path><path d="M311.82,157.09c-10.35-.89-26.72,12.84-26.72,12.84-1.54,3.93,1.22,16.22,9.82,25.08a50.39,50.39,0,0,0,16.15-8.31C321.27,178.79,322.8,158,311.82,157.09Z" style="fill:#263238"></path><path d="M308.33,157.29A193.15,193.15,0,0,1,351,158a14.39,14.39,0,0,1,12,17.14c-6.64,33.42.32,70.9-4,78.37-.56.88-54.69,5-76.91-1.26-7.56-36.27,7.3-58.47,14.77-86.79C298.15,160.59,303.35,157.81,308.33,157.29Z" style="fill:#263238"></path><path d="M381.55,199.73c-.64-1.9-1.33-3.71-2.09-5.44s-1.59-3.39-2.45-5a91.42,91.42,0,0,0-5.59-9.15c-1-1.45-2-2.88-3.13-4.26-.54-.7-1.08-1.39-1.65-2.08l-.87-1-1-1.11a11.2,11.2,0,0,0-17.32,14.17l.34.44,2.53,3.33c.86,1.17,1.75,2.34,2.59,3.53s1.69,2.37,2.49,3.56,1.56,2.39,2.31,3.57a66.89,66.89,0,0,1,3.8,7,30.23,30.23,0,0,1,1.61,4.37,18.81,18.81,0,0,1-3.72,3,54.82,54.82,0,0,1-5.63,3.19c-1,.51-2,1-3.09,1.51l-1.57.74c-.51.24-1.1.49-1.5.72l-1,.56a5.6,5.6,0,0,0,2.45,10.44l2.17.12,2.08,0c1.37,0,2.76-.09,4.14-.22a47.23,47.23,0,0,0,8.46-1.55,37.24,37.24,0,0,0,4.39-1.55,27,27,0,0,0,4.56-2.43,22.14,22.14,0,0,0,4.61-4,19,19,0,0,0,3.72-6.44,7.44,7.44,0,0,0,.39-2.17l0-.68A37.49,37.49,0,0,0,381.55,199.73Z" style="fill:#ffc3bd"></path><path d="M356.14,159.89c9.48,4.26,17.4,21.5,17.4,21.5-.93,6-14.36,18.84-21.38,21.25,0,0-6.57-6.18-9.3-18.2C339.73,170.63,350,157.83,356.14,159.89Z" style="fill:#263238"></path><path d="M315.05,159.75a9,9,0,0,1,4.3-4.07,8.36,8.36,0,0,0,.15-5.62l21-6.69c-1.7,6.95-3,12.44-.45,15.82-4.13,2.52-11.71,7.05-20,6.81S313.7,162.67,315.05,159.75Z" style="fill:#ffc3bd"></path><path d="M319.67,150.71l15.78-.92c-4.94,5.27-12.42,7.25-15.83,5.11A8.43,8.43,0,0,0,319.67,150.71Z" style="opacity:0.2"></path><path d="M319.62,166l3.41-2.84,4.59,2.3S324.69,168.19,319.62,166Z" style="fill:#519BC2"></path><path d="M327,117.34c-6.64,2.92-3,12.2-8.56,14.52.3,2.63,9,3.57,9,3.57s8.77-3.13,8.3-6.38C340.44,123.92,335.69,115.39,327,117.34Z" style="fill:#263238"></path><path d="M347.17,136.88c-4.1,8.45-7.08,14.1-14,15.79-13.81,3.34-18.41-3.73-17.14-13.21,1.14-8.53,7.65-20.91,18.25-21C344.7,118.48,351.27,128.44,347.17,136.88Z" style="fill:#ffc3bd"></path><path d="M345.2,126.62c-6.5,3.21-2.45,12.32-7.92,14.88.42,2.61,9.14,3.17,9.14,3.17s8.63-3.5,8-6.73C358.92,132.61,353.81,124.29,345.2,126.62Z" style="fill:#263238"></path><path d="M341.49,124.6c-6.66-1.49-13.45-4-14.68-8.63s7.93-7.1,8-3.36c5.9-.26,7.2.52,8.73,2.92,2.36,3.69,7.27,3.43,10.14,5.8,3.45,2.87,3.1,9.88-2,9.47S341.49,124.6,341.49,124.6Z" style="fill:#263238"></path><path d="M354.43,129.24a.4.4,0,0,0-.17.17.48.48,0,0,0,.16.66,4.86,4.86,0,0,0,4.4.4.48.48,0,0,0-.42-.87h0a3.89,3.89,0,0,1-3.48-.35A.48.48,0,0,0,354.43,129.24Z" style="fill:#263238"></path><path d="M332.88,133.15a4.65,4.65,0,0,1,3.37,1.11A9,9,0,0,1,332.88,133.15Z" style="opacity:0.2"></path><path d="M332.67,134a3.85,3.85,0,0,1,2.71,1.74A7.54,7.54,0,0,1,332.67,134Z" style="opacity:0.2"></path><path d="M326.82,122.31a42.92,42.92,0,0,1,8.53,2.47C330.55,123.58,326.82,122.31,326.82,122.31Z" style="opacity:0.2"></path><path d="M325.34,122.87s6.51,1.94,9.32,3.93A80.07,80.07,0,0,1,325.34,122.87Z" style="opacity:0.2"></path><path d="M346.88,147.16a9,9,0,0,1-6.75,1.7c-3.16-.5-3.18-3.18-1.44-5.65,1.58-2.23,5.52-4.62,8.17-3S349.23,145.37,346.88,147.16Z" style="fill:#ffc3bd"></path><path d="M330,132.53c-.29.76-.93,1.22-1.43,1s-.67-1-.37-1.74.93-1.23,1.43-1S330.33,131.76,330,132.53Z" style="fill:#263238"></path><path d="M322,129.7c-.29.76-.93,1.23-1.43,1s-.67-1-.37-1.74.93-1.23,1.43-1S322.34,128.93,322,129.7Z" style="fill:#263238"></path><path d="M324.45,131.21l-2.69,6.34a7.49,7.49,0,0,1-2.26-.86.9.9,0,0,1,.15-1.59C322,134.16,324.45,131.21,324.45,131.21Z" style="fill:#ed847e"></path><path d="M334.8,131.59a.49.49,0,0,0,.24,0,.48.48,0,0,0,.3-.61,4.84,4.84,0,0,0-3.08-3.16.48.48,0,0,0-.59.35.5.5,0,0,0,.35.59h0a3.82,3.82,0,0,1,2.41,2.52A.51.51,0,0,0,334.8,131.59Z" style="fill:#263238"></path><path d="M319.67,126.59a.47.47,0,0,0,.44-.06,3.81,3.81,0,0,1,3.41-.66.48.48,0,0,0,.62-.28.49.49,0,0,0-.29-.62,4.74,4.74,0,0,0-4.31.78.48.48,0,0,0,.13.84Z" style="fill:#263238"></path><path d="M339.06,154.69s-7.19,8-16,8.45c5.14,2.44,8.85,7.66,8.85,7.66s9.37-2.29,11.46-14C342,155.13,339.06,154.69,339.06,154.69Z" style="fill:#fff"></path><path d="M319.62,166l-3.86-3.46L310.83,164S314.55,168.19,319.62,166Z" style="fill:#519BC2"></path><path d="M319.35,155.68s-3.43,4-3.59,6.84c-4.09,1.58-7.86,6.76-7.86,6.76s1-8.19,7.46-12.86A7,7,0,0,1,319.35,155.68Z" style="fill:#fff"></path><path d="M358.76,416.4h-3.33l-.87-1.36-1.79,1.37H332.62c-.34-2,1-4.62,1-4.62s6-.54,8.44-3.55a.78.78,0,0,1,.76-.29c2,.42,9.92,1.92,14.35.34a.71.71,0,0,1,1,.66A48,48,0,0,0,358.76,416.4Z" style="fill:#263238"></path><path d="M319.46,139s3,.22,11,2.55c-1.3,1.44-3.72,2.07-7.81,1C319.32,141.62,319.46,139,319.46,139Z" style="fill:#fff"></path><path d="M334.15,224.64c-2.61-4.36-1.85-8.79-1.18-11.41s-3.13-2.49-4.92,1.13a21.52,21.52,0,0,0-1.63,4.64,2.29,2.29,0,0,1-3,1.63l-4-1.48a3.87,3.87,0,0,0-5.19,3.12l-1.52,11.36a3.87,3.87,0,0,0,2.25,4.05l10,4.49a5.19,5.19,0,0,0,2.19.46l3.89-.06,3.48,1.55,5.35-11.94A44.46,44.46,0,0,1,334.15,224.64Z" style="fill:#fff"></path><path d="M339.38,248.46l-5-3.24a1.54,1.54,0,0,1-.57-1.92l5-11.14a1.54,1.54,0,0,1,1.81-.85l5.76,1.6a1.53,1.53,0,0,1,1,2.11l-5.73,12.78A1.54,1.54,0,0,1,339.38,248.46Z" style="fill:#519BC2"></path><path d="M349.56,221.48l2.8,5.83c.59,6.77-8.25,6-8.25,6l-4.39,1.36a3.43,3.43,0,0,1-4-2l-2-4.06a3.57,3.57,0,0,1,1.26-4.82l3.58-1.79a7.06,7.06,0,0,1,3.37-.74Z" style="fill:#ffc3bd"></path></g><g id="freepik--Plant--inject-3"><path d="M164.71,329a.45.45,0,0,1-.16,0,.51.51,0,0,1-.31-.64c6.48-18.38-6.07-45-17.93-56a.51.51,0,0,1,0-.71.5.5,0,0,1,.71,0c11.8,11,25.07,37.61,18.2,57.11A.51.51,0,0,1,164.71,329Z" style="fill:#263238"></path><path d="M159.35,274.48c0,6.07-7,11-15.55,11s-15.55-4.92-15.55-11,6.95-11,15.55-11a21.85,21.85,0,0,1,3.84.34c-2,.87-3.4,2.45-3.4,4.25,0,2.74,3.15,5,7,5,3,0,5.6-1.35,6.59-3.26A8.36,8.36,0,0,1,159.35,274.48Z" style="fill:#519BC2"></path><path d="M146.65,272.4a.42.42,0,0,1-.26-.08c-.08,0-7.38-4.51-15.16-3.78a.5.5,0,1,1-.09-1c8.11-.75,15.46,3.73,15.77,3.92a.51.51,0,0,1,.17.69A.5.5,0,0,1,146.65,272.4Z" style="fill:#263238"></path><path d="M131.8,282a.43.43,0,0,1-.27-.08.51.51,0,0,1-.16-.69c4.93-7.78,14.77-9.71,15.19-9.79a.5.5,0,0,1,.18,1c-.09,0-9.83,1.94-14.52,9.35A.51.51,0,0,1,131.8,282Z" style="fill:#263238"></path><path d="M151.82,284.39a.48.48,0,0,1-.4-.21c-5.21-7.25-5.27-12.08-5.27-12.28a.5.5,0,0,1,.5-.5h0a.5.5,0,0,1,.5.5s.08,4.74,5.08,11.7a.5.5,0,0,1-.41.79Z" style="fill:#263238"></path><path d="M175.41,329a.49.49,0,0,1-.47-.34c-7-19.83-3.21-51.65,13.57-67.42a.49.49,0,0,1,.7,0,.5.5,0,0,1,0,.71c-16.49,15.5-20.2,46.83-13.31,66.36a.5.5,0,0,1-.3.64Z" style="fill:#263238"></path><path d="M177,266.87c1.32,5.93,9.19,9.21,17.57,7.34S208.7,266,207.37,260.1s-9.18-9.22-17.57-7.35a21.37,21.37,0,0,0-3.68,1.17c2.19.4,3.85,1.65,4.25,3.41.59,2.67-2,5.53-5.78,6.37-3,.66-5.76-.1-7.14-1.74A8.29,8.29,0,0,0,177,266.87Z" style="fill:#519BC2"></path><path d="M177,266.87c1.32,5.93,9.19,9.21,17.57,7.34S208.7,266,207.37,260.1s-9.18-9.22-17.57-7.35a21.37,21.37,0,0,0-3.68,1.17c2.19.4,3.85,1.65,4.25,3.41.59,2.67-2,5.53-5.78,6.37-3,.66-5.76-.1-7.14-1.74A8.29,8.29,0,0,0,177,266.87Z" style="fill:#fff;opacity:0.2"></path><path d="M188.85,262.09a.5.5,0,0,1-.35-.86C188.76,261,195,255,203,254a.5.5,0,0,1,.56.43.49.49,0,0,1-.43.56c-7.74,1-13.91,6.93-14,7A.5.5,0,0,1,188.85,262.09Z" style="fill:#263238"></path><path d="M205.43,268.2a.47.47,0,0,1-.35-.15c-6.2-6.21-16.12-6-16.21-6a.52.52,0,0,1-.52-.49.5.5,0,0,1,.48-.51c.43,0,10.45-.27,16.95,6.25a.5.5,0,0,1,0,.71A.47.47,0,0,1,205.43,268.2Z" style="fill:#263238"></path><path d="M186.41,274.92a.43.43,0,0,1-.19,0,.5.5,0,0,1-.27-.66c3.36-7.88,2.42-12.48,2.41-12.53a.5.5,0,0,1,1-.21c0,.19,1,4.92-2.47,13.13A.5.5,0,0,1,186.41,274.92Z" style="fill:#263238"></path><path d="M177.86,326.6a.51.51,0,0,1-.5-.42c-1.76-11.62.63-21.08,6.73-26.64a18.26,18.26,0,0,1,16.71-4.24.51.51,0,0,1,.37.61.51.51,0,0,1-.61.36,17.26,17.26,0,0,0-15.8,4c-5.84,5.33-8.12,14.47-6.41,25.75a.51.51,0,0,1-.42.57Z" style="fill:#263238"></path><path d="M192.48,294.66c-1.28,3.67,1.88,8.1,7.06,9.91s10.42.31,11.7-3.35-1.88-8.1-7.06-9.91a14.22,14.22,0,0,0-2.39-.61,3.15,3.15,0,0,1,1.15,3.29c-.58,1.65-2.94,2.33-5.28,1.51a4.68,4.68,0,0,1-3.29-3.35A5.26,5.26,0,0,0,192.48,294.66Z" style="fill:#519BC2"></path><path d="M210.82,297.22a.45.45,0,0,1-.2,0c-4.49-2.06-9.78-.92-9.83-.91a.5.5,0,0,1-.6-.38.51.51,0,0,1,.38-.59,18.42,18.42,0,0,1,10.46,1,.5.5,0,0,1,.25.66A.52.52,0,0,1,210.82,297.22Z" style="fill:#263238"></path><path d="M207.62,305.19a.49.49,0,0,1-.48-.39c-1.25-5.37-6.65-8.55-6.71-8.58a.49.49,0,0,1-.18-.68.51.51,0,0,1,.68-.19c.24.14,5.83,3.42,7.18,9.23a.5.5,0,0,1-.37.6Z" style="fill:#263238"></path><path d="M195,302.43a.5.5,0,0,1-.28-.91c4.42-3.11,5.45-5.87,5.46-5.9a.49.49,0,0,1,.64-.3.48.48,0,0,1,.3.63c0,.13-1.11,3.08-5.83,6.39A.52.52,0,0,1,195,302.43Z" style="fill:#263238"></path><path d="M165.64,323.25a.52.52,0,0,1-.47-.33,18.46,18.46,0,0,0-13.55-12c-6.43-1.42-13.37.44-17.67,4.75a.5.5,0,0,1-.71,0,.5.5,0,0,1,0-.7,20.15,20.15,0,0,1,18.6-5,19.42,19.42,0,0,1,14.27,12.65.49.49,0,0,1-.3.64A.47.47,0,0,1,165.64,323.25Z" style="fill:#263238"></path><path d="M140.73,316.07c.31,3.35-3.28,6.42-8,6.86s-8.83-1.92-9.14-5.27,3.28-6.42,8-6.86a11.78,11.78,0,0,1,2.14,0,2.73,2.73,0,0,0-1.66,2.52c.14,1.51,2,2.58,4.13,2.38a4.06,4.06,0,0,0,3.47-2.13A4.61,4.61,0,0,1,140.73,316.07Z" style="fill:#519BC2"></path><path d="M140.73,316.07c.31,3.35-3.28,6.42-8,6.86s-8.83-1.92-9.14-5.27,3.28-6.42,8-6.86a11.78,11.78,0,0,1,2.14,0,2.73,2.73,0,0,0-1.66,2.52c.14,1.51,2,2.58,4.13,2.38a4.06,4.06,0,0,0,3.47-2.13A4.61,4.61,0,0,1,140.73,316.07Z" style="fill:#fff;opacity:0.6000000000000001"></path><path d="M133.59,315.8a.59.59,0,0,1-.22-.05,15.19,15.19,0,0,0-8.41-1.29.5.5,0,1,1-.19-1,16.12,16.12,0,0,1,9,1.38.51.51,0,0,1,.22.67A.49.49,0,0,1,133.59,315.8Z" style="fill:#263238"></path><path d="M125.89,321.84a.59.59,0,0,1-.23,0,.52.52,0,0,1-.22-.68c2.37-4.63,7.79-6.23,8-6.29a.5.5,0,0,1,.27,1s-5.23,1.55-7.4,5.79A.49.49,0,0,1,125.89,321.84Z" style="fill:#263238"></path><path d="M137.06,322.15a.52.52,0,0,1-.38-.17c-3.29-3.79-3.57-6.52-3.58-6.63a.5.5,0,0,1,.45-.55.51.51,0,0,1,.54.45s.3,2.56,3.35,6.07a.51.51,0,0,1-.05.71A.52.52,0,0,1,137.06,322.15Z" style="fill:#263238"></path><path d="M182.19,336.94a13.35,13.35,0,1,1,13.34-13.35A13.37,13.37,0,0,1,182.19,336.94Zm0-25.69a12.35,12.35,0,1,0,12.34,12.34A12.36,12.36,0,0,0,182.19,311.25Z" style="fill:#263238"></path><path d="M147.94,319.89c0,34.83,11.44,63.06,25.55,63.06S199,354.72,199,319.89Z" style="fill:#519BC2"></path><path d="M145.84,416.91h-.08a.5.5,0,0,1-.42-.56l8.14-55.82a.51.51,0,0,1,.5-.43h39a.51.51,0,0,1,.5.43l8.13,55.82a.5.5,0,0,1-.42.56.51.51,0,0,1-.57-.42l-8.07-55.39H154.41l-8.08,55.39A.5.5,0,0,1,145.84,416.91Z" style="fill:#263238"></path><path d="M162.2,416.91h0a.51.51,0,0,1-.46-.55l5-55.81a.49.49,0,0,1,.54-.45.48.48,0,0,1,.45.54l-5,55.81A.5.5,0,0,1,162.2,416.91Z" style="fill:#263238"></path></g></svg>
